<svg width="169" height="89" viewBox="0 0 169 89" fill="none" xmlns="http://www.w3.org/2000/svg">
<g id="Walless logo" clip-path="url(#clip0_6496_2257)">
<path id="Vector" d="M73.1738 78.8941C68.4919 82.8568 66.4361 78.8941 66.4361 78.8941L55.0163 44.4929L46.6338 22.7245L39.7236 4.33381C38.7421 1.82055 36.3282 0.171631 33.649 0.171631H3.93901C1.16696 0.171631 -0.742963 2.96415 0.265054 5.5572L29.3914 81.4871C30.9565 85.5296 31.8584 88.7477 39.1798 88.2025H65.5739C65.5739 88.2025 69.5662 87.644 70.6671 84.519C72.3648 80.7026 73.1738 78.8941 73.1738 78.8941Z" fill="#7667AE"/>
<path id="Vector_2" d="M73.1738 78.8941C68.4919 82.8568 66.4361 78.8941 66.4361 78.8941L55.0163 44.4929L46.6338 22.7245L39.7236 4.33381C38.7421 1.82055 36.3282 0.171631 33.649 0.171631H3.93901C1.16696 0.171631 -0.742963 2.96415 0.265054 5.5572L29.3914 81.4871C30.9565 85.5296 31.8584 88.7477 39.1798 88.2025H65.5739C65.5739 88.2025 69.5662 87.644 70.6671 84.519C72.3648 80.7026 73.1738 78.8941 73.1738 78.8941Z" fill="url(#paint0_linear_6496_2257)"/>
<path id="Vector_3" d="M165.009 -0.00012207H135.313C132.62 -0.00012207 130.206 1.64879 129.238 4.16206L121.89 22.7124L117.765 33.4303L112.526 21.3427C111.399 18.7497 108.852 17.0741 106.027 17.0741H67.8154L83.5193 52.353L81.9807 52.6322C81.9807 52.6322 77.312 55.8769 76.9141 56.688C76.5295 57.4859 75.601 60.6507 75.8265 61.7412C76.0652 62.8316 77.7762 66.1693 77.7762 66.1693L78.6251 66.6347C78.6251 66.6347 80.0973 63.0177 84.1824 63.0177C85.0976 63.0842 87.9492 63.0709 89.6735 66.2092L90.2703 67.5523L97.8172 84.5068C98.1488 85.2914 98.6263 85.943 99.2894 86.4882C99.3823 86.568 99.4618 86.6212 99.5547 86.701C99.568 86.701 99.568 86.7143 99.5812 86.7143C100.51 87.4323 101.359 87.7781 101.916 87.9376C101.929 87.9376 101.955 87.9509 101.969 87.9509C102.022 87.9642 102.048 87.9775 102.101 87.9908C102.154 88.0041 102.207 88.0174 102.247 88.0307C102.287 88.044 102.327 88.044 102.353 88.0573C102.95 88.177 103.507 88.2036 103.507 88.2036H104.913H104.94C105.059 88.2036 105.178 88.2036 105.338 88.2036H129.318H131.639C134.437 88.2834 136.745 86.8605 137.78 84.7728C137.965 84.3872 138.204 83.9616 138.31 83.5494L141.746 74.6798L168.683 5.38545C169.678 2.7924 167.782 -0.00012207 165.009 -0.00012207Z" fill="url(#paint1_linear_6496_2257)"/>
<path id="Vector_4" d="M66.4761 78.8273C66.4761 78.8273 68.532 82.79 73.2139 78.8273L100.735 17.0195H62.5369C59.7118 17.0195 57.1653 18.695 56.0379 21.2881L50.7988 33.3757L66.4761 78.8273Z" fill="#B0B0B0"/>
<path id="Vector_5" d="M62.4971 17.0886C59.672 17.0886 57.1255 18.7641 55.9981 21.3572L38.1986 62.3673L33.132 73.7501C32.4954 74.8405 31.2486 75.3459 29.9488 75.3459C28.649 75.3459 27.1768 74.7342 26.4473 73.7767L30.2008 83.5505C30.3069 83.9628 30.5456 84.3883 30.7313 84.7739C30.9038 85.1197 31.116 85.4521 31.3547 85.758C31.3547 85.758 32.8535 88.2579 36.7662 88.2579C38.5169 88.2313 43.1989 88.2313 43.1989 88.2313L43.1326 88.1914H63.1338C63.2929 88.1914 63.4123 88.1914 63.5317 88.1914H63.5582H64.1816C64.5662 88.2313 66.37 88.3643 67.4974 87.6329C68.0147 87.367 69.9777 86.9814 71.0255 83.6835L100.682 17.062H62.4971V17.0886Z" fill="url(#paint2_linear_6496_2257)"/>
</g>
<defs>
<linearGradient id="paint0_linear_6496_2257" x1="24.2263" y1="32.6153" x2="63.9043" y2="81.7387" gradientUnits="userSpaceOnUse">
<stop stop-color="#19A3E1"/>
<stop offset="1" stop-color="#003393"/>
</linearGradient>
<linearGradient id="paint1_linear_6496_2257" x1="161.298" y1="26.5409" x2="64.661" y2="55.1551" gradientUnits="userSpaceOnUse">
<stop stop-color="#19A3E1"/>
<stop offset="1" stop-color="#0A5AA2"/>
</linearGradient>
<linearGradient id="paint2_linear_6496_2257" x1="77.1432" y1="17.2687" x2="54.0587" y2="96.5333" gradientUnits="userSpaceOnUse">
<stop stop-color="#8FC5BE"/>
<stop offset="1" stop-color="#1BA0DA"/>
</linearGradient>
<clipPath id="clip0_6496_2257">
<rect width="168.949" height="88.2569" fill="white"/>
</clipPath>
</defs>
</svg>
